<svg width="200" height="200" viewBox="0 0 200 200" xmlns="http://www.w3.org/2000/svg">
    <defs>
        <linearGradient id="gold-grad" x1="0%" y1="0%" x2="100%" y2="100%">
            <stop offset="0%" style="stop-color:#FFDF00;stop-opacity:1" />
            <stop offset="100%" style="stop-color:#B8860B;stop-opacity:1" />
        </linearGradient>
        <filter id="glass" x="-20%" y="-20%" width="140%" height="140%">
            <feGaussianBlur in="SourceGraphic" stdDeviation="3" result="blur" />
            <feColorMatrix in="blur" type="matrix" values="1 0 0 0 0  0 1 0 0 0  0 0 1 0 0  0 0 0 18 -7" result="alpha" />
            <feComposite in="SourceGraphic" in2="alpha" operator="in" />
        </filter>
        <style>
            .slate { fill: #2F4F4F; }
            .gold { fill: url(#gold-grad); }
            .glass { fill: rgba(255, 255, 255, 0.1); stroke: rgba(255, 255, 255, 0.2); stroke-width: 1; filter: url(#glass); }
            .playfair { font-family: 'Playfair Display', serif; fill: #FFDF00; }
        </style>
    </defs>
    <rect class="slate" width="200" height="200" rx="15"/>
    <g transform="translate(30, 20)">
        <!-- Main structure -->
        <path class="gold" d="M10,70 L10,150 L130,150 L130,70 L70,30 Z" />
        <path class="slate" d="M20,75 L20,140 L120,140 L120,75 L70,40 Z" />

        <!-- Arches and windows -->
        <rect class="glass" x="30" y="85" width="20" height="30" rx="5"/>
        <rect class="glass" x="60" y="85" width="20" height="30" rx="5"/>
        <rect class="glass" x="90" y="85" width="20" height="30" rx="5"/>

        <!-- Domes -->
        <circle class="gold" cx="40" cy="60" r="15"/>
        <circle class="slate" cx="40" cy="60" r="10"/>
        <circle class="gold" cx="100" cy="60" r="15"/>
        <circle class="slate" cx="100" cy="60" r="10"/>

        <!-- Central Tower -->
        <rect class="gold" x="60" y="10" width="20" height="60" />
        <polygon class="slate" points="55,10 85,10 70,0" />
    </g>
</svg>
